<svg width="25" height="25" viewBox="0 0 25 25" fill="none" xmlns="http://www.w3.org/2000/svg">
<path fill-rule="evenodd" clip-rule="evenodd" d="M3.48307 0.580844C2.68629 -0.1936 1.39444 -0.1936 0.597652 0.580844C-0.199135 1.35529 -0.199135 2.61091 0.597652 3.38535L9.97523 12.5L0.597598 21.6146C-0.199189 22.3891 -0.199189 23.6447 0.597598 24.4192C1.39438 25.1936 2.68623 25.1936 3.48302 24.4192L12.8607 15.3045L21.517 23.7181C22.3137 24.4925 23.6056 24.4925 24.4024 23.7181C25.1992 22.9436 25.1992 21.688 24.4024 20.9135L15.7461 12.5L24.4023 4.08646C25.1991 3.31202 25.1991 2.05639 24.4023 1.28195C23.6055 0.507505 22.3137 0.507504 21.5169 1.28195L12.8607 9.69546L3.48307 0.580844Z" fill="#CD3B31"/>
</svg>
