<svg width="37" height="37" viewBox="0 0 37 37" fill="none" xmlns="http://www.w3.org/2000/svg">
<circle cx="18.5" cy="18.5" r="18.5" fill="#E4E4E4"/>
<g clip-path="url(#clip0_543_4296)">
<path d="M29.7006 10.6022C29.6662 10.6941 29.6684 10.793 29.6478 10.8872C29.4938 11.6043 29.3421 12.3215 29.1881 13.0386C28.9329 14.2361 28.6778 15.4336 28.4227 16.6311C28.1193 18.0562 27.8136 19.4789 27.5102 20.904C27.2367 22.1912 26.9608 23.476 26.6873 24.7632C26.5103 25.5929 26.3333 26.4204 26.1541 27.2501C26.1127 27.4432 26.0437 27.6317 25.9472 27.8064C25.6921 28.273 25.2829 28.4453 24.7704 28.3051C24.4831 28.227 24.2348 28.0753 23.9958 27.9006C22.3478 26.6893 20.6952 25.4803 19.0449 24.2713C18.9943 24.2345 18.9667 24.2299 18.9184 24.2782C18.0519 25.1102 17.1831 25.9377 16.3166 26.7697C16.1258 26.9513 15.9189 27.1007 15.6546 27.1467C15.5741 27.1605 15.4937 27.1697 15.4132 27.1697C15.3788 27.1697 15.3696 27.1605 15.3719 27.1237C15.4109 26.5836 15.45 26.0411 15.4891 25.501C15.5144 25.1378 15.5397 24.777 15.5649 24.4138C15.6017 23.9012 15.6385 23.3887 15.6753 22.8761C15.696 22.575 15.7212 22.2762 15.735 21.9751C15.7396 21.8786 15.7672 21.8096 15.8431 21.743C17.5141 20.2466 19.1828 18.748 20.8515 17.2494C22.2329 16.0105 23.6119 14.7694 24.9933 13.5305C25.1657 13.3765 25.3381 13.2202 25.5105 13.0662C25.5703 13.0133 25.6277 12.9604 25.6622 12.8869C25.7151 12.7812 25.6806 12.6961 25.568 12.6593C25.4576 12.6226 25.345 12.6387 25.237 12.6662C25.1175 12.6961 25.0094 12.749 24.9037 12.8133C22.5477 14.2867 20.1918 15.7623 17.8381 17.2356C16.1694 18.2791 14.5008 19.3249 12.8321 20.3685C12.7976 20.3891 12.77 20.4029 12.7263 20.3914C10.991 19.8513 9.25331 19.3112 7.51795 18.7687C7.31109 18.7044 7.11802 18.6147 6.95023 18.4699C6.6905 18.247 6.66522 17.9642 6.88357 17.6999C7.07205 17.4701 7.32258 17.3253 7.58921 17.2103C8.09947 16.9897 8.62353 16.8058 9.14298 16.6058C12.262 15.4083 15.3788 14.2154 18.4955 13.0225C21.0836 12.0319 23.6717 11.0412 26.2575 10.0506C26.908 9.80233 27.5584 9.55179 28.2112 9.30585C28.4526 9.21391 28.7031 9.18173 28.9582 9.24609C29.3513 9.34493 29.5627 9.61385 29.657 9.9931C29.6753 10.0712 29.6868 10.1517 29.7029 10.2298C29.7006 10.3517 29.7006 10.4781 29.7006 10.6022Z" fill="#6B7073"/>
</g>
<defs>
<clipPath id="clip0_543_4296">
<rect width="22.9848" height="22.9848" fill="white" transform="translate(6.72729 7.28784)"/>
</clipPath>
</defs>
</svg>
