<svg width="38" height="37" viewBox="0 0 38 37" fill="none" xmlns="http://www.w3.org/2000/svg">
<circle cx="19.2609" cy="18.5" r="18.5" fill="#E4E4E4"/>
<g clip-path="url(#clip0_543_2932)">
<path d="M20.9159 15.2797C20.9159 16.1209 20.9113 16.9644 20.9182 17.8057C20.9205 17.9666 20.9412 18.1344 20.9895 18.2884C21.0745 18.5573 21.2584 18.6469 21.5204 18.5435C21.6721 18.4837 21.8192 18.3895 21.9479 18.2884C22.4306 17.9045 22.8099 17.4264 23.1684 16.93C24.1223 15.6129 24.8831 14.1856 25.5313 12.6985C25.6922 12.3284 25.9197 12.0365 26.3334 11.9468C26.4461 11.9216 26.5633 11.9101 26.6782 11.9101C27.5034 11.9078 28.3308 11.9055 29.156 11.9101C29.2893 11.9101 29.4272 11.9262 29.5582 11.9583C29.8777 12.0411 30.0294 12.2824 29.9765 12.6088C29.9076 13.0179 29.7513 13.3972 29.572 13.7672C29.1284 14.6843 28.602 15.5532 28.0527 16.4105C27.593 17.1299 27.1172 17.8379 26.6506 18.5527C26.5633 18.686 26.4851 18.8239 26.4093 18.9641C26.2967 19.1687 26.2875 19.387 26.4208 19.5778C26.5794 19.8054 26.7472 20.0329 26.9448 20.226C27.701 20.973 28.4274 21.7453 29.0962 22.5704C29.4939 23.06 29.8961 23.5473 30.1903 24.1081C30.3029 24.3242 30.3949 24.5609 30.4454 24.7977C30.542 25.2528 30.296 25.5769 29.834 25.6504C29.7168 25.6688 29.595 25.6757 29.4755 25.6757C28.6802 25.678 27.8872 25.6711 27.0919 25.6803C26.6989 25.6849 26.3564 25.5654 26.0806 25.2942C25.7542 24.9724 25.4416 24.6368 25.1336 24.2966C24.4579 23.5496 23.7729 22.8141 22.9731 22.1958C22.6788 21.9682 22.3731 21.7614 22.0238 21.6212C21.81 21.5361 21.5917 21.5131 21.3664 21.5384C21.1205 21.566 20.9987 21.6694 20.955 21.9154C20.9274 22.0763 20.9136 22.2395 20.9136 22.4027C20.909 23.1382 20.9113 23.8714 20.9113 24.6069C20.9113 24.7034 20.9136 24.8 20.8998 24.8942C20.8492 25.2643 20.6401 25.4619 20.2011 25.5562C19.7253 25.6596 19.2426 25.6711 18.7599 25.6412C16.9786 25.5332 15.4294 24.8322 14.0273 23.768C12.9609 22.9589 12.092 21.9659 11.3358 20.8673C10.2073 19.2307 9.20053 17.5276 8.41675 15.7003C8.04669 14.8383 7.71801 13.9626 7.53413 13.0386C7.49276 12.8295 7.48126 12.6111 7.49505 12.3997C7.50884 12.1537 7.67204 12.0043 7.90189 11.9377C8.01681 11.9055 8.13633 11.8848 8.25585 11.8848C9.14307 11.8802 10.028 11.8825 10.9152 11.8825C11.3312 11.8825 11.6415 12.0641 11.807 12.4479C11.9403 12.7582 12.0507 13.08 12.1702 13.3972C12.7724 15.0038 13.5033 16.5461 14.4503 17.9804C14.7629 18.4539 15.0961 18.9136 15.5214 19.2951C15.6501 19.41 15.7972 19.5158 15.9512 19.5916C16.2454 19.7341 16.4867 19.61 16.5511 19.2905C16.5833 19.1319 16.5994 18.9664 16.5994 18.8032C16.6039 17.5299 16.6085 16.2565 16.5994 14.9831C16.5948 14.2982 16.3925 13.673 15.9489 13.1352C15.8707 13.0409 15.7972 12.9398 15.7282 12.8387C15.5949 12.6387 15.5604 12.4226 15.6777 12.2066C15.7995 11.9813 16.0017 11.8848 16.2523 11.8825C16.8108 11.8802 17.3693 11.8825 17.9279 11.8825C18.6634 11.8825 19.3966 11.8825 20.1321 11.8825C20.2126 11.8825 20.2907 11.8871 20.3712 11.8986C20.6378 11.9354 20.8079 12.094 20.863 12.3537C20.8975 12.5169 20.9136 12.6847 20.9136 12.8525C20.9182 13.6592 20.9159 14.4706 20.9159 15.2797Z" fill="#6B7073"/>
</g>
<defs>
<clipPath id="clip0_543_2932">
<rect width="22.9848" height="22.9848" fill="white" transform="translate(7.48816 7.28784)"/>
</clipPath>
</defs>
</svg>
